<svg xmlns="http://www.w3.org/2000/svg" x="0px" y="0px" width="100" height="100" viewBox="0 0 100 100">
<path d="M26.5,94C20.159,94,15,88.841,15,82.5v-33c0-5.123,3.366-9.474,8.003-10.957C23.248,22.762,36.162,10,52,10 s28.752,12.762,28.997,28.543C85.634,40.026,89,44.377,89,49.5v33C89,88.841,83.841,94,77.5,94H26.5z" opacity=".35"></path><path fill="#f2f2f2" d="M24.5,92C18.159,92,13,86.841,13,80.5v-33c0-5.123,3.366-9.474,8.003-10.957 C21.248,20.762,34.162,8,50,8s28.752,12.762,28.997,28.543C83.634,38.026,87,42.377,87,47.5v33C87,86.841,81.841,92,75.5,92H24.5z"></path><rect width="59" height="40" x="21" y="44" fill="#f9b84f"></rect><path fill="#9aa2e6" d="M73.5,44h-9v-6.5C64.5,29.505,57.995,23,50,23s-14.5,6.505-14.5,14.5V44h-9v-6.5 C26.5,24.542,37.042,14,50,14s23.5,10.542,23.5,23.5V44z"></path><rect width="7" height="3" x="28" y="41" opacity=".35"></rect><rect width="7" height="3" x="65" y="41" opacity=".35"></rect><path fill="#40396e" d="M75.5,87h-51c-3.584,0-6.5-2.916-6.5-6.5v-33c0-3.584,2.916-6.5,6.5-6.5H26v-4 c0-13.233,10.766-24,24-24s24,10.767,24,24v4h1.5c3.584,0,6.5,2.916,6.5,6.5v33C82,84.084,79.084,87,75.5,87z M24.5,44 c-1.93,0-3.5,1.57-3.5,3.5v33c0,1.93,1.57,3.5,3.5,3.5h51c1.93,0,3.5-1.57,3.5-3.5v-33c0-1.93-1.57-3.5-3.5-3.5h-3 c-0.829,0-1.5-0.672-1.5-1.5V37c0-11.579-9.42-21-21-21s-21,9.421-21,21v5.5c0,0.828-0.671,1.5-1.5,1.5H24.5z M64.5,44h-29 c-0.829,0-1.5-0.672-1.5-1.5V37c0-8.822,7.178-16,16-16s16,7.178,16,16v5.5C66,43.328,65.329,44,64.5,44z M37,41h26v-4 c0-7.168-5.832-13-13-13s-13,5.832-13,13V41z"></path><path fill="#f2f2f2" d="M55,64c0,2.762-2.238,5-5,5s-5-2.238-5-5c0-2.762,2.238-5,5-5S55,61.238,55,64"></path><path fill="#f2f2f2" d="M40,64c0,2.762-2.238,5-5,5s-5-2.238-5-5c0-2.762,2.238-5,5-5S40,61.238,40,64"></path><path fill="#f2f2f2" d="M70,64c0,2.762-2.238,5-5,5s-5-2.238-5-5c0-2.762,2.238-5,5-5S70,61.238,70,64"></path>
</svg>